<svg width="24" height="24" viewBox="0 0 24 24" fill="none" xmlns="http://www.w3.org/2000/svg">
<path d="M4.26562 0V24H19.7344V0H4.26562Z" fill="#76E2F8"/>
<path d="M12 0H19.7344V24H12V0Z" fill="#4BB9EC"/>
<path d="M12.7033 14.3272V15.5633H14.1095V16.9695H9.89078V15.5633H11.297V14.3272C10.9792 14.4913 10.6281 14.5789 10.2559 14.5789C8.88344 14.5789 7.80859 13.4384 7.80859 11.9825C7.80859 10.4539 8.99688 9.45078 10.6417 8.06281C10.9286 7.82047 11.2253 7.57016 11.5398 7.29734L12.0002 6.89844L12.4605 7.29734C12.775 7.57016 13.0717 7.82047 13.3586 8.06281C14.8778 9.34484 16.1917 10.3925 16.1917 11.9825C16.1917 13.4384 15.1169 14.5789 13.7444 14.5789C13.3722 14.5789 13.0211 14.4913 12.7033 14.3272Z" fill="#575F64"/>
<path d="M12.7031 14.3272V15.5633H14.1094V16.9695H12V6.89844L12.4603 7.29734C12.7748 7.57016 13.0716 7.82047 13.3584 8.06281C14.8777 9.34484 16.1916 10.3925 16.1916 11.9825C16.1916 13.4384 15.1167 14.5789 13.7442 14.5789C13.372 14.5789 13.0209 14.4913 12.7031 14.3272Z" fill="#474F54"/>
<path d="M9.89062 2.8125H14.1094V4.21875H9.89062V2.8125Z" fill="#474F54"/>
<path d="M12 2.8125H14.1094V4.21875H12V2.8125Z" fill="#32393F"/>
<path d="M11.2969 19.7812H12.7031V21.1875H11.2969V19.7812Z" fill="#474F54"/>
<path d="M12 19.7812H12.7031V21.1875H12V19.7812Z" fill="#32393F"/>
</svg>
