<svg width="24" height="24" viewBox="0 0 24 24" fill="none" xmlns="http://www.w3.org/2000/svg">
<g clip-path="url(#clip0_7589_9516)">
<path d="M12.2126 0.576172L1.69922 8.08573L2.51663 9.23005L14.3886 4.92828L12.2126 0.576172Z" fill="#FFE375"/>
<path d="M16.6162 3.55078L3.29297 7.99186L3.73762 9.32597L18.2448 8.43656L16.6162 3.55078Z" fill="#57D9AD"/>
<path d="M21.0938 7.95496V23.4237H4.21875L3.51562 20.6112L2.8125 23.4237H0V7.95496H2.8125L3.51562 10.7675L4.21875 7.95496H21.0938Z" fill="#575F64"/>
<path d="M21.0938 15.6893V23.4237H4.21875L3.51562 20.6112L2.8125 23.4237H0V15.6893H21.0938Z" fill="#474F54"/>
<path d="M18.9844 12.1737C17.0461 12.1737 15.4688 13.751 15.4688 15.6893C15.4688 17.6276 17.0461 19.205 18.9844 19.205H24V12.1737H18.9844Z" fill="#FF4949"/>
<path d="M24 15.6893V19.205H18.9844C17.0461 19.205 15.4688 17.6276 15.4688 15.6893H24Z" fill="#F30051"/>
<path d="M18.2812 14.9862H19.6875V16.3925H18.2812V14.9862Z" fill="#575F64"/>
<path d="M18.2812 15.6893H19.6875V16.3925H18.2812V15.6893Z" fill="#474F54"/>
<path d="M2.8125 12.1737H4.21875V14.9862H2.8125V12.1737Z" fill="#474F54"/>
<path d="M2.8125 16.3925H4.21875V19.205H2.8125V16.3925Z" fill="#32393F"/>
<path d="M2.8125 20.6112H4.21875V23.4237H2.8125V20.6112Z" fill="#32393F"/>
<path d="M2.8125 7.95496H4.21875V10.7675H2.8125V7.95496Z" fill="#474F54"/>
</g>
<defs>
<clipPath id="clip0_7589_9516">
<rect width="24" height="24" fill="white"/>
</clipPath>
</defs>
</svg>
