<svg width="24" height="24" viewBox="0 0 24 24" fill="none" xmlns="http://www.w3.org/2000/svg">
<path d="M21.1406 10.6406V14.1562C21.1406 14.5444 20.8256 14.8594 20.4375 14.8594C20.0494 14.8594 19.7344 14.5444 19.7344 14.1562V10.6406H21.1406Z" fill="#474F54"/>
<path d="M20.4375 10.6406H21.1406V14.1562C21.1406 14.5444 20.8256 14.8594 20.4375 14.8594V10.6406Z" fill="#32393F"/>
<path d="M16.2188 14.1562V18.375H19.0312C20.1944 18.375 21.1406 17.4287 21.1406 16.2656V14.1562H16.2188Z" fill="#FF9100"/>
<path d="M16.9219 17.6719V24H14.1094C13.7212 24 13.4062 23.685 13.4062 23.2969V20.4844H4.96875V23.2969C4.96875 23.685 4.65375 24 4.26562 24H1.45312V17.6719C1.45312 17.2837 1.76812 16.9688 2.15625 16.9688H16.2188C16.6069 16.9688 16.9219 17.2837 16.9219 17.6719Z" fill="#FF4949"/>
<path d="M16.9219 17.6719V24H14.1094C13.7213 24 13.4062 23.685 13.4062 23.2969V20.4844H9.1875V16.9688H16.2188C16.6069 16.9688 16.9219 17.2837 16.9219 17.6719Z" fill="#F30051"/>
<path d="M16.9219 7.73438L9.1875 8.10938L1.45312 7.73438C1.45312 3.46969 4.92281 0 9.1875 0C13.4522 0 16.9219 3.46969 16.9219 7.73438Z" fill="#FF4949"/>
<path d="M16.9219 7.73438L9.1875 8.10938V0C13.4522 0 16.9219 3.46969 16.9219 7.73438Z" fill="#F30051"/>
<path d="M14.1094 7.73438L9.1875 8.10938L4.26562 7.73438C4.26562 5.02031 6.47344 2.8125 9.1875 2.8125C11.9016 2.8125 14.1094 5.02031 14.1094 7.73438Z" fill="#F5FAFF"/>
<path d="M14.1094 7.73438L9.1875 8.10938V2.8125C11.9016 2.8125 14.1094 5.02031 14.1094 7.73438Z" fill="#DFE9EE"/>
<path d="M1.45312 7.73438H16.9219V17.6719H1.45312V7.73438Z" fill="#575F64"/>
<path d="M9.1875 7.73438H16.9219V17.6719H9.1875V7.73438Z" fill="#474F54"/>
<path d="M4.26562 9.84375V15.5625H14.1094V9.84375H4.26562Z" fill="#F5FAFF"/>
<path d="M9.1875 9.84375H14.1094V15.5625H9.1875V9.84375Z" fill="#DFE9EE"/>
<path d="M5.67188 11.25H12.7031V14.1562H5.67188V11.25Z" fill="#575F64"/>
<path d="M9.1875 11.25H12.7031V14.1562H9.1875V11.25Z" fill="#474F54"/>
<path d="M7.07812 10.5469H8.48438V14.8594H7.07812V10.5469Z" fill="#F5FAFF"/>
<path d="M9.89062 10.5469H11.2969V14.8594H9.89062V10.5469Z" fill="#DFE9EE"/>
<path d="M4.26562 19.7812H14.1094V24H4.26562V19.7812Z" fill="#575F64"/>
<path d="M9.1875 19.7812H14.1094V24H9.1875V19.7812Z" fill="#474F54"/>
<path d="M20.4375 7.125C19.2745 7.125 18.3281 8.07141 18.3281 9.23438C18.3281 10.3973 19.2745 11.3438 20.4375 11.3438C21.6005 11.3438 22.5469 10.3973 22.5469 9.23438C22.5469 8.07141 21.6005 7.125 20.4375 7.125Z" fill="#FFE375"/>
<path d="M22.5469 9.23438C22.5469 10.3973 21.6005 11.3438 20.4375 11.3438V7.125C21.6005 7.125 22.5469 8.07141 22.5469 9.23438Z" fill="#FFB725"/>
</svg>
