<svg width="24" height="24" viewBox="0 0 24 24" fill="none" xmlns="http://www.w3.org/2000/svg">
<path d="M21.0938 2.15625V10.59L12.2241 14.8125H0V2.15625H21.0938Z" fill="#8BF2CF"/>
<path d="M21.0938 2.15625V10.59L12.2241 14.8125H10.5469V2.15625H21.0938Z" fill="#57D9AD"/>
<path d="M19.6875 5.58328V9.70219L11.9062 13.4062H3.42703C3.17297 12.4177 2.39484 11.6395 1.40625 11.3855V5.58328C2.39484 5.32922 3.17297 4.55109 3.42703 3.5625H17.6667C17.9208 4.55109 18.6989 5.32922 19.6875 5.58328Z" fill="#57D9AD"/>
<path d="M19.6875 5.58328V9.70219L11.9062 13.4062H10.5469V3.5625H17.6667C17.9208 4.55109 18.6989 5.32922 19.6875 5.58328Z" fill="#26BFA6"/>
<path d="M12.6562 9.89062C12.6562 10.807 12.0684 11.5889 11.25 11.8791V14.1094H9.84375V11.8791C9.02531 11.5889 8.4375 10.807 8.4375 9.89062H9.84375C9.84375 10.2783 10.1592 10.5938 10.5469 10.5938C10.9345 10.5938 11.25 10.2783 11.25 9.89062C11.25 9.50297 10.9345 9.1875 10.5469 9.1875C9.38391 9.1875 8.4375 8.24109 8.4375 7.07812C8.4375 6.16172 9.02531 5.37984 9.84375 5.08969V2.85938H11.25V5.08969C12.0684 5.37984 12.6562 6.16172 12.6562 7.07812H11.25C11.25 6.69047 10.9345 6.375 10.5469 6.375C10.1592 6.375 9.84375 6.69047 9.84375 7.07812C9.84375 7.46578 10.1592 7.78125 10.5469 7.78125C11.7098 7.78125 12.6562 8.72766 12.6562 9.89062Z" fill="#8BF2CF"/>
<path d="M12.6562 9.89062C12.6562 10.807 12.0684 11.5889 11.25 11.8791V14.1094H10.5469V10.5938C10.9345 10.5938 11.25 10.2783 11.25 9.89062C11.25 9.50297 10.9345 9.1875 10.5469 9.1875V7.78125C11.7098 7.78125 12.6562 8.72766 12.6562 9.89062Z" fill="#57D9AD"/>
<path d="M10.5469 6.375V2.85938H11.25V5.08969C12.0684 5.37984 12.6562 6.16172 12.6562 7.07812H11.25C11.25 6.69047 10.9345 6.375 10.5469 6.375Z" fill="#57D9AD"/>
<path d="M15.3281 15.5157C15.3281 14.8695 15.591 14.2836 16.0154 13.8592L14.5781 11.7188L13.1993 11.0431C12.0534 12.189 11.3438 13.771 11.3438 15.5157L13.2188 16.2188L15.3281 15.5157Z" fill="#FF4949"/>
<path d="M19.3284 13.8591L21.7031 12.6562L22.1445 11.043C20.9986 9.89719 19.4166 9.1875 17.6719 9.1875L17.3906 11.2031L17.6719 13.1719C18.318 13.1719 18.904 13.4347 19.3284 13.8591Z" fill="#F30051"/>
<path d="M23.9997 15.5156L22.1247 15.2344L20.0154 15.5156C20.0154 16.1618 19.7525 16.7477 19.3281 17.1721L20.5779 19.0312L22.1442 19.9882C23.29 18.8423 23.9997 17.2603 23.9997 15.5156Z" fill="#F30051"/>
<path d="M16.0153 17.1719L14.1562 18.3279L13.1992 19.9879C14.3451 21.1338 15.9271 21.8435 17.6718 21.8435L18.0468 20.0154L17.6718 17.8591C17.0256 17.8591 16.4397 17.5963 16.0153 17.1719Z" fill="#FF4949"/>
<path d="M17.6718 13.1719V9.1875C15.9271 9.1875 14.3451 9.89719 13.1992 11.043L16.0153 13.8591C16.4397 13.4347 17.0256 13.1719 17.6718 13.1719Z" fill="#575F64"/>
<path d="M20.0154 15.5155H23.9997C23.9997 13.7709 23.29 12.1888 22.1442 11.043L19.3281 13.859C19.7525 14.2834 20.0154 14.8694 20.0154 15.5155Z" fill="#474F54"/>
<path d="M15.3281 15.5156H11.3438C11.3438 17.2603 12.0534 18.8423 13.1993 19.9882L16.0154 17.1721C15.591 16.7477 15.3281 16.1618 15.3281 15.5156Z" fill="#575F64"/>
<path d="M17.6719 17.8591V21.8435C19.4166 21.8435 20.9986 21.1338 22.1445 19.9879L19.3284 17.1719C18.904 17.5963 18.318 17.8591 17.6719 17.8591Z" fill="#474F54"/>
<path d="M17.6719 12C15.7331 12 14.1562 13.5773 14.1562 15.5156C14.1562 17.4539 15.7331 19.0312 17.6719 19.0312C19.6106 19.0312 21.1875 17.4539 21.1875 15.5156C21.1875 13.5773 19.6106 12 17.6719 12Z" fill="#F5FAFF"/>
<path d="M21.1875 15.5156C21.1875 17.4539 19.6106 19.0312 17.6719 19.0312V12C19.6106 12 21.1875 13.5773 21.1875 15.5156Z" fill="#DFE9EE"/>
</svg>
