<svg width="24" height="24" viewBox="0 0 24 24" fill="none" xmlns="http://www.w3.org/2000/svg">
<g clip-path="url(#clip0_7589_9486)">
<path d="M13.5912 9.32617H10.4075C8.01641 9.74617 5.89812 11.1051 4.50781 13.0898C11.4434 18.0932 11.968 18.472 11.998 18.4935C11.998 18.4935 11.9984 18.4935 11.9984 18.494C11.9989 18.494 11.9989 18.494 11.9989 18.4945H11.9994H11.9998V18.494C12.0003 18.494 12.0003 18.494 12.0003 18.4935H12.0008H12.0013V18.493C12.0341 18.4696 12.5792 18.0763 19.4909 13.0898C18.1034 11.1093 15.9875 9.74711 13.5912 9.32617Z" fill="#FF4949"/>
<path d="M19.4897 13.0898C12.578 18.0763 12.0328 18.4696 12 18.493V9.32617H13.59C15.9862 9.74711 18.1022 11.1093 19.4897 13.0898Z" fill="#F30051"/>
<path d="M12.0003 18.4924C11.9998 18.4921 12 18.4922 12.0003 18.4924V18.4924Z" fill="black"/>
<path d="M12 18.4941C12.0003 18.4943 12.0003 18.4944 12 18.4941V18.4941Z" fill="black"/>
<path d="M12.0002 18.4943C12.0002 18.4943 12.0001 18.4943 12 18.4941C12.0001 18.4942 12.0002 18.4943 12.0002 18.4943Z" fill="black"/>
<path d="M11.9999 18.4941C11.9997 18.4942 11.9997 18.4943 11.9999 18.4941V18.4941Z" fill="black"/>
<path d="M12 18.4941L12.0004 18.4939L12.0002 18.494L12 18.4941Z" fill="black"/>
<path d="M12 18.4946L12.0007 18.4941L12.0001 18.4946L12 18.4946Z" fill="black"/>
<path d="M8.48438 0.75H9.89062V3.5625H8.48438V0.75Z" fill="#FFE375"/>
<path d="M2.85938 6.375H5.67188V7.78125H2.85938V6.375Z" fill="#FFE375"/>
<path d="M3.76953 2.6543L4.76375 1.66008L6.87282 3.76915L5.8786 4.76337L3.76953 2.6543Z" fill="#FFE375"/>
<path d="M14.1094 0.75H15.5156V3.5625H14.1094V0.75Z" fill="#FFB725"/>
<path d="M18.3281 6.375H21.1406V7.78125H18.3281V6.375Z" fill="#FFB725"/>
<path d="M17.125 3.76953L19.2341 1.66046L20.2283 2.65468L18.1192 4.76375L17.125 3.76953Z" fill="#FFB725"/>
<path d="M4.26562 19.0312H19.7344V23.25H4.26562V19.0312Z" fill="#FFB725"/>
<path d="M12 19.0312H19.7325V23.25H12V19.0312Z" fill="#FF9100"/>
<path d="M22.2719 12.9255L19.7336 19.9685H4.26484L1.72656 12.9255C1.73125 12.9232 1.71386 12.9339 3.70234 11.5779L7.52828 14.4476L10.7416 8.02148H13.2569L16.4702 14.4476L20.2961 11.5779L22.2719 12.9255Z" fill="#FFE375"/>
<path d="M22.2708 12.9255L19.7325 19.9685H12V8.02148H13.2558L16.4691 14.4476L20.295 11.5779L22.2708 12.9255Z" fill="#FFB725"/>
<path d="M2.10938 13.4062C0.946266 13.4062 0 12.46 0 11.2969C0 10.1338 0.946266 9.1875 2.10938 9.1875C3.27248 9.1875 4.21875 10.1338 4.21875 11.2969C4.21875 12.46 3.27248 13.4062 2.10938 13.4062Z" fill="#FF4949"/>
<path d="M21.8906 13.4062C20.7275 13.4062 19.7812 12.46 19.7812 11.2969C19.7812 10.1338 20.7275 9.1875 21.8906 9.1875C23.0537 9.1875 24 10.1338 24 11.2969C24 12.46 23.0537 13.4062 21.8906 13.4062Z" fill="#F30051"/>
<path d="M12.0019 4.96875H12C10.837 4.96875 9.89062 5.91516 9.89062 7.07812C9.89062 8.24109 10.837 9.1875 12 9.1875H12.0019C13.1639 9.18656 14.1094 8.24062 14.1094 7.07812C14.1094 5.91563 13.1639 4.96969 12.0019 4.96875Z" fill="#FF4949"/>
<path d="M14.1075 7.07812C14.1075 8.24062 13.162 9.18656 12 9.1875V4.96875C13.162 4.96969 14.1075 5.91563 14.1075 7.07812Z" fill="#F30051"/>
<path d="M13.4062 19.7344L12.0019 23.2453L12 23.25L10.5938 19.7344L12 16.2188L12.0019 16.2234L13.4062 19.7344Z" fill="#57D9AD"/>
<path d="M13.4044 19.7336L12 23.2445V16.2227L13.4044 19.7336Z" fill="#26BFA6"/>
</g>
<defs>
<clipPath id="clip0_7589_9486">
<rect width="24" height="24" fill="white"/>
</clipPath>
</defs>
</svg>
