<svg width="22" height="22" viewBox="0 0 22 22" fill="none" xmlns="http://www.w3.org/2000/svg">
<g clip-path="url(#clip0_7589_9578)">
<path d="M13.1733 14.0899C12.6545 14.6097 11.9633 14.8957 11.229 14.8957C10.4948 14.8957 9.80365 14.6097 9.28485 14.0899L5.389 10.1942C4.86935 9.67527 4.58334 8.98425 4.58334 8.24993C4.58334 7.51577 4.86935 6.82459 5.389 6.30578C5.90781 5.78596 6.59899 5.49996 7.33331 5.49996C8.06747 5.49996 8.75865 5.78596 9.27746 6.30578L11.229 8.25631L17.3788 2.10647C17.2919 1.69223 16.9408 1.375 16.4998 1.375H2.74997C1.23383 1.375 0 2.60883 0 4.12497V17.8748C0 19.391 1.23383 20.6248 2.74997 20.6248H16.4998C18.016 20.6248 19.2498 19.391 19.2498 17.8748V8.01343L13.1733 14.0899Z" fill="url(#paint0_radial_7589_9578)"/>
<path d="M13.1733 14.0899C12.6545 14.6097 11.9633 14.8957 11.229 14.8957C10.4948 14.8957 9.80365 14.6097 9.28485 14.0899L5.389 10.1942C4.86935 9.67527 4.58334 8.98425 4.58334 8.24993C4.58334 7.51577 4.86935 6.82459 5.389 6.30578C5.90781 5.78596 6.59899 5.49996 7.33331 5.49996C8.06747 5.49996 8.75865 5.78596 9.27746 6.30578L11.229 8.25631L17.3788 2.10647C17.2919 1.69223 16.9408 1.375 16.4998 1.375H2.74997C1.23383 1.375 0 2.60883 0 4.12497V17.8748C0 19.391 1.23383 20.6248 2.74997 20.6248H16.4998C18.016 20.6248 19.2498 19.391 19.2498 17.8748V8.01343L13.1733 14.0899Z" fill="url(#paint1_radial_7589_9578)" fill-opacity="0.2"/>
<path d="M11.2306 13.0626C10.9959 13.0626 10.7613 12.9728 10.5825 12.794L6.68686 8.89819C6.32834 8.53984 6.32834 7.96044 6.68686 7.60209C7.04521 7.24374 7.62444 7.24374 7.98295 7.60209L11.2306 10.8497L20.4367 1.64376C20.7951 1.28541 21.3743 1.28541 21.7328 1.64376C22.0912 2.00228 22.0912 2.58151 21.7328 2.94003L11.8786 12.794C11.7 12.9728 11.4652 13.0626 11.2306 13.0626Z" fill="url(#paint2_radial_7589_9578)"/>
<path d="M11.2306 13.0626C10.9959 13.0626 10.7613 12.9728 10.5825 12.794L6.68686 8.89819C6.32834 8.53984 6.32834 7.96044 6.68686 7.60209C7.04521 7.24374 7.62444 7.24374 7.98295 7.60209L11.2306 10.8497L20.4367 1.64376C20.7951 1.28541 21.3743 1.28541 21.7328 1.64376C22.0912 2.00228 22.0912 2.58151 21.7328 2.94003L11.8786 12.794C11.7 12.9728 11.4652 13.0626 11.2306 13.0626Z" fill="url(#paint3_radial_7589_9578)" fill-opacity="0.2"/>
</g>
<defs>
<radialGradient id="paint0_radial_7589_9578" cx="0" cy="0" r="1" gradientUnits="userSpaceOnUse" gradientTransform="translate(6.45306 -1.63278) rotate(86.2195) scale(23.6565 14.4708)">
<stop stop-color="#F2F292"/>
<stop offset="0.8515" stop-color="#169100"/>
</radialGradient>
<radialGradient id="paint1_radial_7589_9578" cx="0" cy="0" r="1" gradientUnits="userSpaceOnUse" gradientTransform="translate(4.37495 5.28511) rotate(32.2894) scale(15.2023 20.7403)">
<stop offset="0.186254" stop-color="#2DF151"/>
<stop offset="1" stop-color="#37F12D" stop-opacity="0.93"/>
</radialGradient>
<radialGradient id="paint2_radial_7589_9578" cx="0" cy="0" r="1" gradientUnits="userSpaceOnUse" gradientTransform="translate(11.642 -0.451187) rotate(84.9649) scale(14.3874 11.695)">
<stop stop-color="#F2F292"/>
<stop offset="0.8515" stop-color="#169100"/>
</radialGradient>
<radialGradient id="paint3_radial_7589_9578" cx="0" cy="0" r="1" gradientUnits="userSpaceOnUse" gradientTransform="translate(9.9597 3.74904) rotate(25.3577) scale(11.5131 13.4609)">
<stop offset="0.186254" stop-color="#2DF151"/>
<stop offset="1" stop-color="#37F12D" stop-opacity="0.93"/>
</radialGradient>
<clipPath id="clip0_7589_9578">
<rect width="22" height="22" fill="white"/>
</clipPath>
</defs>
</svg>
