<svg width="25" height="24" viewBox="0 0 25 24" fill="none" xmlns="http://www.w3.org/2000/svg">
<g opacity="0.2">
<path d="M17.6017 8.57769C17.6875 8.66342 17.7556 8.76522 17.8021 8.87728C17.8485 8.98934 17.8724 9.10946 17.8724 9.23077C17.8724 9.35207 17.8485 9.47219 17.8021 9.58425C17.7556 9.69631 17.6875 9.79812 17.6017 9.88384L11.1402 16.3454C11.0545 16.4312 10.9526 16.4993 10.8406 16.5457C10.7285 16.5922 10.6084 16.6161 10.4871 16.6161C10.3658 16.6161 10.2457 16.5922 10.1336 16.5457C10.0216 16.4993 9.91975 16.4312 9.83402 16.3454L7.06479 13.5762C6.89159 13.4029 6.79428 13.168 6.79428 12.9231C6.79428 12.6781 6.89159 12.4432 7.06479 12.27C7.238 12.0968 7.47292 11.9995 7.71787 11.9995C7.96282 11.9995 8.19774 12.0968 8.37095 12.27L10.4871 14.3873L16.2956 8.57769C16.3813 8.49187 16.4831 8.42378 16.5952 8.37733C16.7072 8.33087 16.8273 8.30696 16.9486 8.30696C17.0699 8.30696 17.1901 8.33087 17.3021 8.37733C17.4142 8.42378 17.516 8.49187 17.6017 8.57769ZM24.3333 12C24.3333 14.3734 23.6295 16.6934 22.3109 18.6668C20.9923 20.6402 19.1182 22.1783 16.9255 23.0865C14.7327 23.9948 12.3199 24.2324 9.99217 23.7694C7.6644 23.3064 5.52621 22.1635 3.84798 20.4853C2.16975 18.807 1.02686 16.6689 0.563834 14.3411C0.100811 12.0133 0.338451 9.60051 1.2467 7.4078C2.15495 5.21508 3.69302 3.34094 5.66641 2.02236C7.6398 0.703788 9.95988 0 12.3333 0C15.5148 0.00335979 18.5651 1.26872 20.8148 3.51843C23.0645 5.76814 24.3299 8.81843 24.3333 12ZM22.4871 12C22.4871 9.99176 21.8916 8.02861 20.7759 6.35882C19.6601 4.68903 18.0743 3.38759 16.219 2.61907C14.3636 1.85055 12.322 1.64947 10.3523 2.04126C8.38269 2.43305 6.57344 3.40011 5.1534 4.82015C3.73336 6.24019 2.7663 8.04943 2.37451 10.0191C1.98273 11.9887 2.18381 14.0303 2.95233 15.8857C3.72085 17.7411 5.02229 19.3269 6.69208 20.4426C8.36187 21.5583 10.325 22.1538 12.3333 22.1538C15.0253 22.1508 17.6062 21.08 19.5097 19.1765C21.4133 17.2729 22.484 14.692 22.4871 12Z" fill="url(#paint0_radial_7589_9690)"/>
<path d="M17.6017 8.57769C17.6875 8.66342 17.7556 8.76522 17.8021 8.87728C17.8485 8.98934 17.8724 9.10946 17.8724 9.23077C17.8724 9.35207 17.8485 9.47219 17.8021 9.58425C17.7556 9.69631 17.6875 9.79812 17.6017 9.88384L11.1402 16.3454C11.0545 16.4312 10.9526 16.4993 10.8406 16.5457C10.7285 16.5922 10.6084 16.6161 10.4871 16.6161C10.3658 16.6161 10.2457 16.5922 10.1336 16.5457C10.0216 16.4993 9.91975 16.4312 9.83402 16.3454L7.06479 13.5762C6.89159 13.4029 6.79428 13.168 6.79428 12.9231C6.79428 12.6781 6.89159 12.4432 7.06479 12.27C7.238 12.0968 7.47292 11.9995 7.71787 11.9995C7.96282 11.9995 8.19774 12.0968 8.37095 12.27L10.4871 14.3873L16.2956 8.57769C16.3813 8.49187 16.4831 8.42378 16.5952 8.37733C16.7072 8.33087 16.8273 8.30696 16.9486 8.30696C17.0699 8.30696 17.1901 8.33087 17.3021 8.37733C17.4142 8.42378 17.516 8.49187 17.6017 8.57769ZM24.3333 12C24.3333 14.3734 23.6295 16.6934 22.3109 18.6668C20.9923 20.6402 19.1182 22.1783 16.9255 23.0865C14.7327 23.9948 12.3199 24.2324 9.99217 23.7694C7.6644 23.3064 5.52621 22.1635 3.84798 20.4853C2.16975 18.807 1.02686 16.6689 0.563834 14.3411C0.100811 12.0133 0.338451 9.60051 1.2467 7.4078C2.15495 5.21508 3.69302 3.34094 5.66641 2.02236C7.6398 0.703788 9.95988 0 12.3333 0C15.5148 0.00335979 18.5651 1.26872 20.8148 3.51843C23.0645 5.76814 24.3299 8.81843 24.3333 12ZM22.4871 12C22.4871 9.99176 21.8916 8.02861 20.7759 6.35882C19.6601 4.68903 18.0743 3.38759 16.219 2.61907C14.3636 1.85055 12.322 1.64947 10.3523 2.04126C8.38269 2.43305 6.57344 3.40011 5.1534 4.82015C3.73336 6.24019 2.7663 8.04943 2.37451 10.0191C1.98273 11.9887 2.18381 14.0303 2.95233 15.8857C3.72085 17.7411 5.02229 19.3269 6.69208 20.4426C8.36187 21.5583 10.325 22.1538 12.3333 22.1538C15.0253 22.1508 17.6062 21.08 19.5097 19.1765C21.4133 17.2729 22.484 14.692 22.4871 12Z" fill="url(#paint1_radial_7589_9690)" fill-opacity="0.2"/>
</g>
<defs>
<radialGradient id="paint0_radial_7589_9690" cx="0" cy="0" r="1" gradientUnits="userSpaceOnUse" gradientTransform="translate(8.37871 -3.75) rotate(86.2195) scale(29.4942 18.0417)">
<stop stop-color="#F2F292"/>
<stop offset="0.8515" stop-color="#169100"/>
</radialGradient>
<radialGradient id="paint1_radial_7589_9690" cx="0" cy="0" r="1" gradientUnits="userSpaceOnUse" gradientTransform="translate(5.7878 4.875) rotate(32.2894) scale(18.9537 25.8584)">
<stop offset="0.186254" stop-color="#2DF151"/>
<stop offset="1" stop-color="#37F12D" stop-opacity="0.93"/>
</radialGradient>
</defs>
</svg>
