<svg width="42" height="42" viewBox="0 0 42 42" fill="none" xmlns="http://www.w3.org/2000/svg">
<path d="M7.42186 41.5697C7.93321 42.0913 8.73339 42.1387 9.29725 41.7119L9.4588 41.5697L21 29.7965L32.5412 41.5697C33.0526 42.0913 33.8527 42.1387 34.4166 41.7119L34.5781 41.5697C35.0895 41.0481 35.136 40.2318 34.7176 39.6567L34.5781 39.4919L22.0185 26.6803C21.5071 26.1587 20.7069 26.1113 20.1431 26.5381L19.9815 26.6803L7.42186 39.4919C6.85938 40.0657 6.85938 40.9959 7.42186 41.5697Z" fill="white"/>
<path d="M7.42186 27.5697C7.93321 28.0913 8.73339 28.1387 9.29725 27.7119L9.4588 27.5697L21 15.7965L32.5412 27.5697C33.0526 28.0913 33.8527 28.1387 34.4166 27.7119L34.5781 27.5697C35.0895 27.0481 35.136 26.2318 34.7176 25.6567L34.5781 25.4919L22.0185 12.6803C21.5071 12.1587 20.7069 12.1113 20.1431 12.5381L19.9815 12.6803L7.42186 25.4919C6.85938 26.0657 6.85938 26.9959 7.42186 27.5697Z" fill="white"/>
</svg>
